<?xml version="1.0" standalone="no"?>
<!DOCTYPE svg PUBLIC "-//W3C//DTD SVG 1.1//EN" "http://www.w3.org/Graphics/SVG/1.1/DTD/svg11.dtd" >
<svg xmlns="http://www.w3.org/2000/svg">
<metadata>Generated by IcoMoon</metadata>
<defs>
<font id="gadotme" horiz-adv-x="1024">
<font-face units-per-em="1024" ascent="778.24" descent="-245.76" />
<missing-glyph horiz-adv-x="1024" />
<glyph unicode="&#x20;" d="" horiz-adv-x="512" />
<glyph unicode="&#xe600;" d="M791.273 61.766l-85.039-85.039-194.351 194.351-194.351-194.351-85.039 85.039 194.351 194.351-194.351 194.351 85.039 85.015 194.351-194.351 194.351 194.351 85.039-85.015-194.351-194.351 194.351-194.351z" />
<glyph unicode="&#xe601;" d="M453.772-23.249l-81.617 85.644 186.577 194.304-186.577 197.213 77.452 81.268 271.686-279.226-267.52-279.203z" />
<glyph unicode="&#xe602;" d="M570.228-23.249l81.617 85.644-186.577 194.304 186.577 197.213-77.452 81.268-271.686-279.249 267.52-279.18z" />
<glyph unicode="&#xe603;" d="M232.541 511.884h558.592v-93.091h-558.592v93.091zM232.541 303.034h558.592v-93.091h-558.592v93.091zM232.541 92.672h558.592v-93.091h-558.592v93.091z" />
<glyph unicode="&#xe604;" d="M599.017 116.387h-343.017v372.34h512v-534.435l-168.983 162.095z" />
<glyph unicode="&#xe605;" d="M604.020-23.226v232.564h188.276l-280.669 325.795-279.18-325.772h186.461v-232.564h185.111z" />
<glyph unicode="&#xe606;" d="M418.467 418.909h186.531v-69.818h-186.531v69.818zM418.467 535.226h186.531v-69.772h-186.531v69.772zM512-23.156l-279.482 325.702h558.964l-279.482-325.702z" />
<glyph unicode="&#xe607;" d="M282.764 163.049l-26.973 351.721 131.375-182.854 124.951 167.145 125.487-167.145 130.327 182.621-26.88-351.488h-458.287zM279.063 116.34h465.827v-92.998h-465.827v92.998z" />
<glyph unicode="&#xe608;" d="M558.336-23.366v161.14c0 65.769 52.177 119.063 116.55 119.063s116.55-53.318 116.55-119.063v-161.14h-233.1zM674.886 299.636c-64.372 0-116.55 53.318-116.55 119.087s52.177 119.063 116.55 119.063c64.372 0 116.55-53.318 116.55-119.063 0-65.792-52.177-119.087-116.55-119.087zM232.518 137.775c0 65.769 52.177 119.063 116.55 119.063 64.372 0 116.55-53.318 116.55-119.063v-161.14h-233.1v161.14zM349.068 299.636c-64.372 0-116.55 53.318-116.55 119.087s52.177 119.063 116.55 119.063c64.372 0 116.55-53.318 116.55-119.063 0-65.792-52.177-119.087-116.55-119.087z" />
<glyph unicode="&#xe609;" d="M232.96 46.639v269.94l69.818-52.596v-147.805h418.374v279.645h-61.487c-16.012 21.737-39.401 45.498-73.053 69.167h204.567v-418.351h-558.22zM652.218 229.841c0 0-36.329 62.394-121.507 85.644-34.863 9.519-54.342 11.683-65.396 11.008v-116.085l-232.122 179.665 232.122 168.425v-93.696c14.964-3.002 43.194-13.103 92.183-45.754 96.303-58.135 94.72-189.207 94.72-189.207z" />
<glyph unicode="&#xe60a;" d="M279.529-46.545v93.137h464.943v-93.137h-464.943zM326.121 186.415h139.567v123.345c-41.379 18.060-70.377 59.485-70.377 107.776 0 64.908 52.247 117.504 116.689 117.504s116.689-52.62 116.689-117.504c0-48.291-28.998-89.716-70.353-107.776v-123.345h139.567v-93.487h-371.782v93.487z" />
<glyph unicode="&#xe60b;" d="M825.693 278.598v-45.196l-81.361-22.598v7.261c-5.725-33.303-18.688-64.070-37.050-90.833l4.143 4.143 41.542-73.495-31.953-31.977-73.449 41.519c-23.855-16.431-50.921-28.532-80.105-35.049l-21.271-79.174h-45.196l-22.086 76.847c-31.697 5.26-61.114 17.082-87.040 33.839l-67.165-37.958-31.953 31.977 36.841 65.21c-19.153 26.601-32.884 57.367-39.284 90.81l-70.284 19.526v45.196l69.725 19.363c6.051 34.071 19.712 65.443 38.959 92.556l-35.956 63.628 31.953 31.977 64.884-36.678c26.694 17.711 57.204 30.138 90.159 35.491l21.271 73.891h45.196l20.41-76.125c30.441-6.679 58.554-19.479 83.177-36.864l71.238 40.262 31.953-31.977-41.332-73.146c16.058-25.204 27.439-53.667 32.698-84.271v4.445l81.338-22.598zM522.775 420.352c-90.857 0-164.515-73.588-164.515-164.352s73.658-164.352 164.515-164.352c90.857 0 164.515 73.588 164.515 164.352s-73.658 164.352-164.515 164.352zM523.404 314.182c-32.209 0-58.298-26.089-58.298-58.252 0-32.186 26.112-58.252 58.298-58.252s58.321 26.089 58.321 58.252c0 32.163-26.112 58.252-58.321 58.252z" />
<glyph unicode="&#xe60c;" d="M512-23.133c-154.345 0-279.482 124.975-279.482 279.133s125.137 279.133 279.482 279.133 279.482-124.975 279.482-279.133-125.137-279.133-279.482-279.133zM512 469.341c-117.969 0-213.62-95.511-213.62-213.341s95.628-213.341 213.62-213.341 213.62 95.511 213.62 213.341c0 117.807-95.651 213.341-213.62 213.341zM464.989 396.218h93.533v-280.041h-93.533v280.041z" />
<glyph unicode="&#xe60d;" d="M792.832 0.512c17.711-6.959 35.956-13.428 52.736-22.132-79.523-96.163-199.75-157.487-334.289-157.487-137.868 0-260.445 64.559-339.875 164.887 12.009 5.167 24.367 9.705 36.492 14.476 50.711 20.829 99.235 45.521 148.736 68.585 17.408 21.457 15.872 49.152 16.081 74.287-0.163 1.815-0.559 5.446-0.791 7.261-1.28 6.633-2.863 13.242-4.189 19.875-0.396 1.862-1.187 5.562-1.583 7.471-0.14 0.512-0.372 1.35-0.559 2.025l-1.303-1.908c-1.513 8.634-3.351 17.222-5.329 25.786-7.61 28.090-16.175 55.971-25.297 83.665-37.213-3.863-51.503 72.099-51.503 72.099l0.349 24.367c0 0 2.537 1.978 3.793 3.002 0.233 0.605 0.279 1.024 0.535 1.676 8.029 10.892 11.241 35.468 11.241 35.468s-11.543 77.684 9.356 112.524l0.745-1.443c18.199 38.493 57.693 67.724 101.562 82.688 21.108 8.239 43.939 11.985 66.374 16.128 6.633 1.745 13.359 2.071 20.084 1.839 9.542 1.001 19.107 1.42 28.486-1.047 22.435-4.166 45.265-7.913 66.374-16.151 43.846-14.988 83.363-44.241 101.562-82.758l0.721 1.443c20.899-34.863 15.593-74.543 9.356-112.617 0.582-12.544 3.235-24.623 11.241-35.514 0.256-0.628 0.535-1.676 0.535-1.676l3.793-3.002 0.349-24.39c0 0-14.289-76.032-51.503-72.169-9.123-27.718-17.687-55.622-25.297-83.759-1.955-8.564-3.817-17.152-5.329-25.786l-1.303 1.908c-0.186-0.698-0.419-1.513-0.559-2.025-0.396-1.908-1.187-5.609-1.583-7.471-1.327-6.633-2.909-13.242-4.189-19.898-0.209-1.815-0.605-5.446-0.791-7.261 0.209-25.158-1.327-52.876 16.058-74.356 49.478-23.040 98.001-47.756 148.713-68.608z" />
<glyph unicode="&#xe60e;" d="M512.675 389.865c-76.637 177.385-278.319 107.799-279.761-60.509-0.791-113.059 144.919-214.621 144.919-214.621l134.656-115.247 139.217 121.158c0 0 139.985 105.891 139.241 209.943-0.512 168.797-205.149 229.562-278.272 59.276z" />
<glyph unicode="&#xe60f;" d="M598.249-22.784l68.887 68.934-114.339 114.246 54.388 54.388 114.269-114.292 68.911 68.864v-192.14h-192.116zM607.162 297.658l-54.365 54.365 114.339 114.362-68.887 68.864h192.14v-192.14l-68.887 68.934-114.339-114.385zM469.946 351.814l-54.365-54.365-114.525 114.572-68.887-68.934v192.14h192.14l-68.887-68.864 114.525-114.548zM415.581 214.993l54.365-54.365-114.525-114.455 68.887-68.934h-192.14v192.14l68.887-68.864 114.525 114.479z" />
<glyph unicode="&#xe610;" d="M275.898 209.152l66.374-72.541-121.926-121.041 52.387-52.015 121.926 121.088 71.191-65.932v190.464h-189.952zM751.151-37.167l52.364 52.015-121.903 121.041 66.374 72.541h-189.347v-190.464l70.609 65.932 121.903-121.065zM275.898 302.848l66.374 63.791-121.926 121.041 52.41 52.015 121.926-121.088 71.191 65.932v-181.713h-189.975zM751.151 539.695l52.364-52.015-121.903-121.041 66.374-63.791h-189.347v181.713l70.609-65.932 121.903 121.065z" />
<glyph unicode="&#xe611;" d="M868.724 255.558l-635.555 373.993v-747.985l635.555 373.993" />
<glyph unicode="&#xe612;" d="M442.577 208.849l-0.861-232.052h116.945v232.052h127.209l12.753 117.434h-139.962v85.039c0 0-1.094 8.751 6.563 21.853 7.657 13.126 49.967 8.751 49.967 8.751h83.433l-1.071 93.556h-139.101c0 0-59.089 2.188-85.341-24.041-26.228-26.252-30.534-74.356-30.534-74.356l-0.489-110.825h-93.091v-117.434h93.58z" />
<glyph unicode="&#xe613;" d="M524.241-22.272c-160.396 0-290.42 130.025-290.42 290.42s130.025 290.397 290.42 290.397 290.42-130.025 290.42-290.42-130.048-290.397-290.42-290.397zM523.497 511.907c-135.028 0-244.503-109.289-244.503-244.108s109.475-244.108 244.503-244.108c135.052-0.023 244.503 109.265 244.503 244.084s-109.452 244.131-244.503 244.131zM395.543 139.776v56.879c0 32.721 26.089 59.229 58.275 59.229s58.275-26.508 58.275-59.229v-56.879M453.818 395.636c32.186 0 58.275-26.508 58.275-59.229s-26.089-59.229-58.275-59.229-58.275 26.508-58.275 59.229 26.089 59.229 58.275 59.229zM535.18 139.776v56.879c0 32.721 26.089 59.229 58.275 59.229s58.275-26.508 58.275-59.229v-56.879M593.455 395.636c32.186 0 58.275-26.508 58.275-59.229s-26.089-59.229-58.275-59.229-58.275 26.508-58.275 59.229 26.089 59.229 58.275 59.229z" />
<glyph unicode="&#xe614;" d="M524.241-22.272c-160.396 0-290.42 130.025-290.42 290.42s130.025 290.397 290.42 290.397 290.42-130.025 290.42-290.42-130.048-290.397-290.42-290.397zM523.497 511.907c-135.028 0-244.503-109.289-244.503-244.108s109.475-244.108 244.503-244.108c135.052-0.023 244.503 109.265 244.503 244.084s-109.452 244.131-244.503 244.131zM656.756 220.532c-5.353-7.308-11.404-13.289-18.106-17.897-6.726-4.608-13.452-8.145-20.154-10.589-6.726-2.444-13.172-4.143-19.34-5.073-6.191-0.954-11.311-1.443-15.43-1.443-11.52 0-19.759 2.304-24.692 6.912-4.934 4.608-7.54 9.635-7.82 15.034h-0.815c-5.492-5.423-12.335-10.449-20.573-15.034-8.239-4.608-18.921-6.912-32.093-6.912-8.774 0-16.803 1.699-24.064 5.097-7.261 3.398-13.521 8.076-18.711 14.033-5.213 5.958-9.263 13.149-12.125 21.551-2.886 8.401-4.329 17.617-4.329 27.648 0 11.939 1.932 23.389 5.772 34.374 3.84 10.985 9.263 20.736 16.268 29.277 6.982 8.541 15.546 15.313 25.693 20.34 10.147 5.027 21.667 7.54 34.56 7.54 10.961 0 20.084-1.769 27.369-5.306 7.261-3.514 12.963-9.495 17.059-17.897h0.838l3.281 18.316h38.679l-15.22-80.128c-0.815-3.817-1.652-8.262-2.467-13.428-0.815-5.167-1.233-9.635-1.233-13.428 0-2.979 0.768-5.632 2.257-7.936 1.513-2.304 4.468-3.444 8.844-3.444s8.704 1.14 12.963 3.444c4.236 2.304 8.029 5.958 11.311 10.985 3.305 5.004 5.958 11.311 8.029 18.897s3.095 16.687 3.095 27.252c0 16.268-2.676 30.557-8.029 42.915-5.353 12.335-12.753 22.714-22.225 31.116-9.449 8.401-20.783 14.708-33.932 18.897-13.149 4.212-27.555 6.307-43.194 6.307-17.012 0-32.512-2.839-46.499-8.541-13.987-5.702-25.996-13.684-36.003-23.994-10.007-10.31-17.757-22.505-23.249-36.608s-8.239-29.417-8.239-45.964c0-17.897 3.025-33.908 9.053-47.988 6.028-14.103 14.476-26.042 25.297-35.793 10.822-9.751 23.645-17.292 38.47-22.575 14.801-5.283 30.86-7.936 48.128-7.936 15.639 0 29.975 2.164 43.008 6.516 13.033 4.329 24.623 10.426 34.769 18.316h45.265c-14.801-20.061-33.257-35.328-55.343-45.754-22.086-10.449-45.731-15.663-70.959-15.663-21.946 0-42.589 3.724-61.929 11.171-19.34 7.447-36.282 17.827-50.804 31.116-14.545 13.289-25.996 29.207-34.374 47.802-8.355 18.572-12.544 38.842-12.544 60.812 0 21.69 4.119 41.751 12.335 60.207 8.239 18.432 19.479 34.42 33.745 47.988 14.266 13.568 30.929 24.204 49.99 31.93 19.060 7.75 39.424 11.613 61.091 11.613 18.106 0 35.863-2.909 53.295-8.751s32.977-14.452 46.708-25.833c13.708-11.38 24.739-25.414 33.117-42.1 8.355-16.663 12.567-35.724 12.567-57.158 0-14.383-1.722-26.833-5.143-37.423-3.491-10.543-7.866-19.479-13.219-26.81zM547.095 298.217c-4.934 7.052-12.614 10.589-23.040 10.589-12.614 0-22.644-4.864-30.045-14.639-7.401-9.751-11.124-21.713-11.124-35.793 0-4.352 0.419-8.681 1.233-13.033 0.838-4.352 2.281-8.215 4.329-11.59s4.934-6.167 8.634-8.332 8.425-3.258 14.196-3.258c8.495 0 15.569 1.489 21.201 4.468 5.609 2.979 10.077 6.842 13.382 11.59 3.281 4.748 5.539 10.031 6.796 15.872 1.233 5.818 1.862 11.59 1.862 17.292 0 10.822-2.467 19.782-7.424 26.833z" />
<glyph unicode="&#xe615;" d="M524.241-22.272c-160.396 0-290.42 130.025-290.42 290.42s130.025 290.397 290.42 290.397 290.42-130.025 290.42-290.42-130.048-290.397-290.42-290.397zM523.497 511.907c-135.028 0-244.503-109.289-244.503-244.108s109.475-244.108 244.503-244.108c135.052-0.023 244.503 109.265 244.503 244.084s-109.452 244.131-244.503 244.131zM558.429 139.683h-70.121v140.94h-80.477l115.153 138.054 117.364-138.054h-81.943v-140.94z" />
<glyph unicode="&#xe616;" d="M524.241-22.272c-160.396 0-290.42 130.025-290.42 290.42s130.025 290.397 290.42 290.397 290.42-130.025 290.42-290.42-130.048-290.397-290.42-290.397zM523.497 511.907c-135.028 0-244.503-109.289-244.503-244.108s109.475-244.108 244.503-244.108c135.052-0.023 244.503 109.265 244.503 244.084s-109.452 244.131-244.503 244.131zM405.504 255.744h235.846l-118.481-136.96-117.364 136.96zM488.564 326.004h70.097v-46.522h-70.097v46.522zM488.564 395.59h70.097v-46.685h-70.097v46.685z" />
<glyph unicode="&#xe617;" d="M395.334 372.945h256.070v-46.406h-256.070v46.406zM430.452 303.5h185.833v-47.151h-185.833v47.151zM464.989 233.449h116.759v-46.545h-116.759v46.545zM500.038 163.305h46.592v-46.545h-46.592v46.545zM524.241-22.272c-160.396 0-290.42 130.025-290.42 290.42s130.025 290.397 290.42 290.397 290.42-130.025 290.42-290.42-130.048-290.397-290.42-290.397zM523.497 511.907c-135.028 0-244.503-109.289-244.503-244.108s109.475-244.108 244.503-244.108c135.052-0.023 244.503 109.265 244.503 244.084s-109.452 244.131-244.503 244.131z" />
<glyph unicode="&#xe618;" d="M524.241-22.272c-160.396 0-290.42 130.025-290.42 290.42s130.025 290.397 290.42 290.397 290.42-130.025 290.42-290.42-130.048-290.397-290.42-290.397zM523.497 511.907c-135.028 0-244.503-109.289-244.503-244.108s109.475-244.108 244.503-244.108c135.052-0.023 244.503 109.265 244.503 244.084s-109.452 244.131-244.503 244.131zM420.119 209.036l-12.94 191.535 59.788-95.86 56.879 87.808 57.111-87.808 59.322 96.116-12.241-190.673-207.919-1.117zM628.713 140.148h-209.827v45.428l209.827 1.117v-46.545z" />
<glyph unicode="&#xe619;" d="M524.241-22.272c-160.396 0-290.42 130.025-290.42 290.42s130.025 290.397 290.42 290.397 290.42-130.025 290.42-290.42-130.048-290.397-290.42-290.397zM523.497 511.907c-135.028 0-244.503-109.289-244.503-244.108s109.475-244.108 244.503-244.108c135.052-0.023 244.503 109.265 244.503 244.084s-109.452 244.131-244.503 244.131zM395.66 185.204h255.348v-44.358h-255.348v44.358zM418.653 255.791h68.794v60.044c-13.126 10.636-21.713 26.74-21.713 45.033 0 32.023 25.786 57.996 57.6 57.996 31.791 0 57.577-25.972 57.577-57.996 0-18.246-8.541-34.327-21.62-44.963v-60.113h68.724v-45.987h-209.361v45.987z" />
<glyph unicode="&#xe61a;" d="M524.241-22.272c-160.396 0-290.42 130.025-290.42 290.42s130.025 290.397 290.42 290.397 290.42-130.025 290.42-290.42-130.048-290.397-290.42-290.397zM523.497 511.907c-135.028 0-244.503-109.289-244.503-244.108s109.475-244.108 244.503-244.108c135.052-0.023 244.503 109.265 244.503 244.084s-109.452 244.131-244.503 244.131zM395.427 209.827v162.653h255.953v-244.457l-83.363 81.804h-172.591z" />
<glyph unicode="&#xe61b;" d="M791.273 186.484h-358.423l135.54-133.423-80.407-80.198-278.342 272.198 280.227 271.034 76.893-82.711-127.209-130.839h351.721v-116.061z" />
<glyph unicode="&#xe61c;" d="M232.727 186.996h358.423l-135.54-131.468 80.407-79.011 278.342 268.172-280.227 267.055-76.893-81.478 127.185-128.931h-351.697v-114.339z" />
<glyph unicode="&#xe61d;" d="M791.343-23.296h-418.118v419.328h22.342l163.095 139.264v-139.264h232.681v-419.328zM232.657 349.487h92.625v-372.806h-92.625v372.806z" />
<glyph unicode="&#xe61e;" d="M316.207 443.462h103.75c-0.14 1.466-0.442 2.886-0.442 4.375v40.983c0 25.809 20.713 46.732 46.266 46.732h91.997c25.553 0 46.243-20.922 46.243-46.732v-40.983c0-1.489-0.303-2.909-0.442-4.375h107.45l33.373-93.37-465.222-0.093 37.027 93.463zM693.876-22.924h-364.637l-50.083 326.214 465.222 0.721-50.502-326.935z" />
<glyph unicode="&#xe61f;" d="M465.292 209.92v325.027h372.527v-325.027h-372.527zM512.372 70.191v-93.091h-279.273v93.091h94.511v464.756h91.299v-464.756h93.463z" />
<glyph unicode="&#xe620;" d="M256 512h139.636v-139.636h-139.636v139.636zM442.182 512h139.636v-139.636h-139.636v139.636zM628.364 512h139.636v-139.636h-139.636v139.636zM256 325.818h139.636v-139.636h-139.636v139.636zM442.182 325.818h139.636v-139.636h-139.636v139.636zM628.364 325.818h139.636v-139.636h-139.636v139.636zM256 139.636h139.636v-139.636h-139.636v139.636zM442.182 139.636h139.636v-139.636h-139.636v139.636zM628.364 139.636h139.636v-139.636h-139.636v139.636z" />
<glyph unicode="&#xe621;" d="M209.385 511.953h605.254v-92.393h-605.254v92.393zM301.94 371.828h418.676v-92.207h-418.676v92.207zM395.194 232.937h232.867v-93.254h-232.867v93.254zM465.338 93.3h93.324v-93.254h-93.324v93.254z" />
<glyph unicode="&#xe622;" d="M451.305-0.047l409.74 420.119-80.035 91.834-331.078-335.686-182.528 186.182-81.059-96.512 264.96-265.937z" />
<glyph unicode="&#xe623;" d="M162.909 349.347h166.609l181.364 162.607v-511.907l-181.364 163.398h-166.609v185.903zM861.044 488.797v-465.617h-69.12v465.617h69.12zM744.192 396.241v-279.040h-68.934v279.040h68.934zM628.573 326.26v-139.776h-69.981v139.776h69.981z" />
<glyph unicode="&#xe624;" d="M116.364 349.347h166.609l181.364 162.607v-511.907l-181.364 163.398h-166.609v185.903zM885.946 151.203l-58.298-57.041-106.822 104.518-106.822-104.518-58.298 57.041 106.822 104.518-106.822 104.518 58.298 57.018 106.822-104.518 106.822 104.518 58.298-57.018-106.822-104.518 106.822-104.518z" />
<glyph unicode="&#xe625;" d="M279.273 488.727h465.455v-465.455h-465.455v465.455z" />
<glyph unicode="&#xe626;" d="M694.807-0.303l-89.786 90.019 15.593 15.639-49.315 49.478c-20.573-13.009-89.437-36.678-130.257-36.678-115.13 0-208.477 93.347-208.477 208.5 0 115.153 93.347 208.5 208.477 208.5 115.153 0 208.477-93.347 208.477-208.5 0-40.611-23.319-108.986-36.166-129.536l49.361-49.524 15.546 15.593 89.856-90.089-73.309-73.402zM442.135 488.378c-90.089 0-163.095-72.89-163.095-162.793 0-89.926 73.030-162.816 163.095-162.816s163.095 72.89 163.095 162.816c0 89.926-73.030 162.793-163.095 162.793zM372.55 325.888c0-8.239 1.676-16.012 4.305-23.343h-48.361c-1.536 7.564-2.351 15.383-2.351 23.412 0 64.233 51.991 116.34 116.131 116.34 7.959 0 15.709-0.815 23.203-2.351v-48.524c0 0-15.034 4.282-23.226 4.282-38.516-0.023-69.702-31.255-69.702-69.818z" />
<glyph unicode="&#xe627;" d="M621.94-22.947h-389.585v418.932h558.545v-577.326l-168.96 158.394z" />
<glyph unicode="&#xe628;" d="M512-46.545c-167.098 0-302.545 135.447-302.545 302.545s135.447 302.545 302.545 302.545 302.545-135.447 302.545-302.545-135.447-302.545-302.545-302.545zM512 488.727c-128.535 0-232.727-104.192-232.727-232.727s104.192-232.727 232.727-232.727 232.727 104.192 232.727 232.727-104.192 232.727-232.727 232.727zM512 69.818c-102.819 0-186.182 83.363-186.182 186.182s83.363 186.182 186.182 186.182 186.182-83.363 186.182-186.182-83.363-186.182-186.182-186.182z" />
<glyph unicode="&#xe629;" d="M500.969-45.545c-160.396 0-290.42 130.025-290.42 290.42s130.025 290.397 290.42 290.397 290.42-130.025 290.42-290.42-130.048-290.397-290.42-290.397zM500.224 488.634c-135.028 0-244.503-109.289-244.503-244.108s109.475-244.108 244.503-244.108c135.052 0 244.527 109.289 244.527 244.108s-109.475 244.108-244.527 244.108zM500.364 69.818c-96.396 0-174.545 78.15-174.545 174.545s78.15 174.545 174.545 174.545 174.545-78.15 174.545-174.545-78.15-174.545-174.545-174.545zM500.364 378.624c-74.17 0-134.26-60.113-134.26-134.26s60.113-134.26 134.26-134.26 134.26 60.113 134.26 134.26-60.090 134.26-134.26 134.26zM500.364 136.96c-59.322 0-107.404 48.081-107.404 107.404s48.081 107.404 107.404 107.404 107.404-48.081 107.404-107.404-48.081-107.404-107.404-107.404z" />
<glyph unicode="&#xe62a;" d="M512 116.34l-174.522 256.047h349.021l-174.499-256.047z" />
<glyph unicode="&#xe62b;" d="M209.943 395.055h255.139v163.724h93.254v-163.747h255.721v-69.329h-604.113v69.353zM743.796-23.226h-463.593l-71.703 302.871h607.744l-72.448-302.871z" />
<glyph unicode="&#xe62c;" d="M512-46.545c-167.098 0-302.545 135.447-302.545 302.545s135.447 302.545 302.545 302.545 302.545-135.447 302.545-302.545-135.447-302.545-302.545-302.545zM558.522 442.345h-93.533v-93.626h93.533v93.626zM558.522 303.127h-93.533v-210.223h93.533v210.223z" />
<glyph unicode="&#xe62d;" d="M523.636 395.66l-174.522-256.047h349.021l-174.499 256.047z" />
<glyph unicode="&#xe62e;" d="M512-23.273c-154.228 0-279.273 125.044-279.273 279.273s125.044 279.273 279.273 279.273 279.273-125.044 279.273-279.273-125.044-279.273-279.273-279.273zM643.654 91.439l32.931 32.931-82.292 82.292-32.931-32.931 82.292-82.292zM302.545 279.273v-46.545h116.364v46.545h-116.364zM380.346 420.561l-32.931-32.931 82.292-82.292 32.931 32.931-82.292 82.292zM430.452 207.057l-81.548-81.548 32.605-32.605 81.548 81.548-32.605 32.605zM535.273 465.455h-46.545v-116.364h46.545v116.364zM535.273 162.909h-46.545v-116.364h46.545v116.364zM642.49 419.095l-81.548-81.548 32.628-32.628 81.548 81.548-32.628 32.628zM605.091 279.273v-46.545h116.364v46.545h-116.364z" />
<glyph unicode="&#xe62f;" d="M529.363-255.608h494.246v496.941l-255.081 256.346-226.349-0.738 0.271-45.131-45.372 45.131h-226.018v-226.003l36.804-44.845-36.804-0.136v-225.958l258.304-255.608z" />
<glyph unicode="&#xe630;" d="M968.401 259.863l-162.886-279.203-162.886 279.203h114.153c-6.074 115.805-101.609 207.919-218.927 207.919-121.228 0-219.508-98.281-219.508-219.508s98.281-219.508 219.508-219.508c5.516 0 10.938 0.442 16.384 0.838l2.141-94.557c-6.167-0.349-12.265-0.931-18.502-0.931-173.521 0-314.182 140.66-314.182 314.182s140.66 314.182 314.182 314.182c169.612 0 307.433-134.47 313.6-302.569h116.922z" />
<glyph unicode="&#xe631;" d="M558.499 115.782v-70.889c78.871-9.519 140.777-44.893 140.777-90.112h-349.812c0 45.126 62.255 80.454 139.636 90.042v70.959l-233.495 0.791v372.573l233.007-1.117v70.842h68.305v-69.492l210.432-1.21v-372.038l-208.849-0.349zM325.795 186.345h139.823v46.383h-138.752l-1.071-46.383zM535.343 418.769h-209.524l-0.279-46.639h208.919l0.884 46.639zM651.683 326.377l-324.841-0.396-1.047-46.708 325.888-0.209v47.313z" />
<glyph unicode="&#xe632;" d="M354.956 22.993l-74.705 75.148-50.688-123.764 125.393 48.617zM398.429 40.518l52.084 19.107 238.825 238.871-135.75 131.584-238.825-238.871c-6.516-6.307 1.466-1.443 1.466-1.443l-20.061-50.129 102.26-99.119zM450.513 59.625l265.845 270.918 70.819 68.655c6.516 6.307 6.516 16.57 0 22.877l-112.151 108.707c-6.516 6.307-17.082 6.307-23.622 0l-70.819-68.655 135.773-131.584z" />
<glyph unicode="&#xe633;" d="M810.17 150.109c0-95.697-77.359-173.289-172.8-173.289-49.431 0-93.882 20.922-125.37 54.272 29.324 31.046 47.43 72.867 47.43 119.017 0 14.476-1.955 28.439-5.306 41.868 61.533 15.639 109.777 64.279 125.044 126.115 75.194-18.781 131.002-86.761 131.002-167.983zM512 269.126c-31.511 33.35-75.962 54.272-125.37 54.272-14.708 0-28.905-2.025-42.519-5.492-3.351 13.428-5.306 27.392-5.306 41.868 0 95.697 77.359 173.289 172.777 173.289s172.8-77.591 172.8-173.289c0-14.406-1.932-28.3-5.26-41.681-13.405 3.351-27.345 5.329-41.798 5.329-49.385-0.023-93.836-20.922-125.324-54.295zM469.83 191.791c-3.305-13.382-5.236-27.276-5.236-41.681 0-46.127 18.106-87.948 47.43-119.017-31.511-33.35-75.962-54.272-125.37-54.272-95.441 0-172.8 77.568-172.8 173.289 0 80.966 55.436 148.759 130.281 167.796 15.36-61.999 63.884-110.685 125.696-126.115zM469.83 191.791c7.284 29.487 22.016 55.971 42.17 77.335 20.131-21.318 34.839-47.732 42.124-77.149-13.615-3.444-27.811-5.492-42.519-5.492-14.429 0-28.369 1.978-41.775 5.306z" />
<glyph unicode="&#xe634;" d="M829.161 413.696c-21.039-8.913-43.66-14.941-67.398-17.641 24.227 13.871 42.845 35.817 51.596 61.999-22.691-12.847-47.802-22.179-74.543-27.183-21.411 21.783-51.898 35.375-85.667 35.375-64.815 0-117.364-50.153-117.364-112.035 0-8.774 1.024-17.338 3.025-25.53-97.536 4.678-184.041 49.292-241.92 117.062-10.1-16.547-15.895-35.793-15.895-56.32 0-38.865 20.713-73.169 52.224-93.254-19.247 0.582-37.329 5.632-53.178 14.033 0-0.465 0-0.954 0-1.42 0-54.295 40.471-99.561 94.161-109.871-9.844-2.56-20.224-3.933-30.929-3.933-7.564 0-14.918 0.698-22.086 2.001 14.941-44.521 58.275-76.916 109.638-77.801-40.169-30.068-90.764-47.965-145.78-47.965-9.472 0-18.804 0.535-27.997 1.559 51.945-31.791 113.617-50.339 179.898-50.339 215.878 0 333.94 170.729 333.94 318.79 0 4.841-0.116 9.705-0.349 14.499 22.993 15.779 42.892 35.514 58.624 57.972z" />
<glyph unicode="&#xe635;" d="M609.978 530.106c18.246-15.104 56.32-46.871 56.32-107.241 0-58.787-33.327-86.598-66.607-112.826-10.333-10.333-22.225-21.457-22.225-38.912 0-17.478 11.892-27.043 20.62-34.188l28.556-22.225c34.909-29.417 66.607-56.436 66.607-111.267 0-74.659-72.192-150.156-208.617-150.156-115.014 0-170.543 54.831-170.543 113.617 0 28.602 14.266 69.12 61.091 96.954 49.175 30.185 115.828 34.141 151.505 36.538-11.101 14.313-23.761 29.393-23.761 53.993 0 13.521 3.956 21.457 7.936 30.999-8.751-0.791-17.455-1.583-25.414-1.583-84.084 0-131.677 62.767-131.677 124.719 0 36.538 16.663 77.079 50.781 106.449 45.219 37.329 99.142 43.683 141.987 43.683h163.398l-50.758-28.602-49.199 0.047zM553.658 177.361c-6.33 0.815-10.31 0.815-18.246 0.815-7.145 0-49.967-1.583-83.293-12.73-17.455-6.33-68.236-25.391-68.236-81.827 0-56.39 54.737-96.908 139.636-96.908 76.172 0 116.596 36.538 116.596 85.807 0 40.495-26.159 61.929-86.458 104.844v0zM576.675 328.308c18.199 18.292 19.805 43.683 19.805 57.996 0 57.204-34.095 146.176-99.956 146.176-20.62 0-42.822-10.333-55.529-26.228-13.498-16.687-17.455-38.121-17.455-58.787 0-53.225 30.953-141.428 99.165-141.428 19.828 0 41.263 9.565 53.969 22.272v0z" />
<glyph unicode="&#xe636;" d="M524.241-22.272c-160.396 0-290.42 130.025-290.42 290.42s130.025 290.397 290.42 290.397 290.42-130.025 290.42-290.42-130.048-290.397-290.42-290.397zM523.497 511.907c-135.028 0-244.503-109.289-244.503-244.108s109.475-244.108 244.503-244.108c135.052-0.023 244.503 109.265 244.503 244.084s-109.452 244.131-244.503 244.131zM411.741 139.124l-35.398 139.427h299.939l-35.747-139.427h-228.794zM377.088 345.693h110.964v73.542h70.284v-73.542h116.876v-43.52h-298.124v43.52z" />
<glyph unicode="&#xe637;" d="M802.211 433.687c-20.55-9.356-53.62-19.34-76.777-22.179 23.645 14.545 52.806 41.239 61.347 68.701-22.156-13.475-50.316-19.596-76.428-24.855-20.899 22.831-47.011 33.466-79.988 33.466-63.279 0-114.572-52.62-114.572-117.527 0-9.216 1.001-18.199 2.956-26.787-95.232 4.911-179.642 51.712-236.148 122.81-9.868-17.361-15.523-37.539-15.523-59.089 0-40.774 20.224-76.753 50.967-97.839-18.781 0.605-36.445 5.888-51.898 14.708 0-0.489 0-0.977 0-1.466 0-56.948 39.494-104.471 91.927-115.27-9.635-2.7-19.735-4.119-30.185-4.119-7.377 0-14.545 0.721-21.551 2.095 14.569-46.685 60.556-73.356 110.685-74.31-39.215-31.535-92.276-57.647-145.943-57.647-9.239 0-18.385 0.559-27.322 1.629 50.711-33.35 110.941-52.806 175.616-52.806 210.758 0 326.004 175.453 326.004 330.775 0 5.097-0.116 10.17-0.349 15.197 22.388 16.593 41.821 40.96 57.181 64.512z" />
<glyph unicode="&#xe638;" d="M721.455 0h-139.636v186.182l81.455 0.047 11.636 69.818-93.091-0.047v41.449c0 20.666 19.875 32.535 49.943 32.535l43.148 2.42v58.182c-6.656 0.861-34.211 6.121-60.695 6.121-55.273 0-102.214-38.144-102.214-99.258v-41.449h-69.818v-69.818h69.818v-186.182h-209.455c-23.412 0-46.545 23.18-46.545 46.545v418.909c0 23.366 23.133 46.545 46.545 46.545h418.909c23.412 0 46.545-23.18 46.545-46.545v-418.909c0-23.366-23.133-46.545-46.545-46.545z" />
<glyph unicode="&#xe639;" d="M721.455 0h-236.032c11.636 17.92 18.246 37.516 18.246 57.297 0 46.359-26.554 69.236-55.785 94.092l-23.924 18.804c-7.308 6.051-17.268 14.103-17.268 28.905 0 14.778 9.961 24.18 18.618 32.931 27.881 22.179 55.785 45.684 55.785 95.395 0 51.084-31.907 77.94-47.174 90.717h41.193l42.519 24.18h-136.844c-35.887 0-81.036-5.353-118.924-36.957-2.234-1.932-3.793-4.282-5.841-6.307v66.397c0 23.366 23.133 46.545 46.545 46.545h418.909c23.412 0 46.545-23.18 46.545-46.545v-418.909c-0.023-23.366-23.156-46.545-46.569-46.545zM721.455 374.97h-66.909v67.212h-44.614v-67.212h-66.909v-44.8h66.909v-67.188h44.614v67.212h66.909v44.777zM350.883 211.177c-3.351-8.076-6.656-14.778-6.656-26.205 0-20.806 10.612-33.559 19.898-45.661-25.553-1.722-70.028-4.538-108.148-21.271v118.039c18.339-15.779 42.845-26.252 73.612-26.252 6.679 0 13.987 0.675 21.295 1.35zM277.783 348.23c0 17.478 3.328 35.631 14.615 49.734 10.636 13.428 29.231 22.179 46.499 22.179 55.156 0 83.712-75.241 83.712-123.625 0-12.102-1.35-33.583-16.593-49.059-10.659-10.729-28.602-18.828-45.196-18.828-57.135 0-83.037 74.589-83.037 119.599zM301.708 109.708c27.904 9.425 63.791 10.752 69.772 10.752 6.633 0 9.961 0 15.267-0.675 50.502-36.282 72.401-54.412 72.401-88.669 0-11.334-2.723-21.783-7.68-31.116h-148.922c-23.412 0-46.545 23.18-46.545 46.545v31.139c13.661 19.689 35.887 28.416 45.708 32.023z" />
<glyph unicode="&#xe63a;" d="M512-23.273c-154.228 0-279.273 125.044-279.273 279.273s125.044 279.273 279.273 279.273 279.273-125.044 279.273-279.273-125.044-279.273-279.273-279.273zM680.332 114.153c-30.022 12.218-58.717 26.74-88.017 40.262-10.31 12.614-9.379 28.858-9.519 43.636 0.093 1.071 0.326 3.212 0.465 4.282 0.768 3.887 1.699 7.773 2.467 11.66 0.233 1.094 0.721 3.281 0.954 4.375 0.093 0.303 0.233 0.791 0.349 1.187l0.768-1.117c0.908 5.073 1.978 10.124 3.142 15.127 4.515 16.5 9.588 32.884 14.988 49.152 22.016-2.257 30.487 42.333 30.487 42.333l-0.209 14.313-2.257 1.815c0 0-0.163 0.605-0.326 0.977-4.748 6.4-6.307 13.475-6.656 20.829 3.7 22.342 6.819 45.638-5.539 66.095l-0.442-0.838c-10.775 22.598-34.164 39.773-60.113 48.57-12.497 4.841-26.019 7.028-39.284 9.472-5.748 1.513-11.636 1.35-17.478 0.698-3.77 0.093-7.54-0.163-11.264-1.14-13.265-2.444-26.787-4.631-39.284-9.472-25.949-8.774-49.338-25.949-60.113-48.524l-0.442 0.861c-12.381-20.433-5.539-66.025-5.539-66.025s-1.908-14.429-6.656-20.829c-0.14-0.372-0.186-0.605-0.326-0.977-0.745-0.582-2.234-1.769-2.234-1.769l-0.209-14.313c0 0 8.448-44.567 30.487-42.31 5.399-16.268 10.473-32.628 14.988-49.105 1.164-5.027 2.257-10.054 3.165-15.127l0.768 1.117c0.116-0.419 0.256-0.908 0.349-1.187 0.233-1.117 0.698-3.305 0.954-4.375 0.768-3.887 1.722-7.773 2.467-11.66 0.116-1.071 0.372-3.212 0.465-4.282-0.14-14.755 0.791-30.999-9.519-43.59-29.3-13.521-58.019-28.020-88.041-40.239-7.215-2.816-14.592-5.516-21.737-8.564 47.011-58.88 119.668-96.698 201.286-96.698 79.639 0 150.784 35.956 197.865 92.416-9.914 5.073-20.713 8.867-31.209 12.963z" />
<glyph unicode="&#xe63b;" d="M542.178-0.271h226.093v45.764h-180.766v135.002h180.796v45.794h-226.123v-226.56zM632.335 135.665h135.921v-45.779h-135.921v45.779zM632.154 315.904v90.699h45.99v-90.699h-45.99zM768.301 497.227v-226.56h-45.794v181.248h-135.002v-181.248h-45.312v226.56h226.108zM497.348 226.289v-226.56h-45.779v180.766h-135.002v-180.766h-45.794v226.56h226.575zM496.851 406.784h-135.499v-45.688h90.353v-44.514h-135.364v134.686h180.495v45.688h-225.596v-225.566h225.611v135.394zM406.724-0.301h-45.312v135.981h45.312v-135.981z" />
<glyph unicode="&#xe63c;" d="M739.956-46.545l-218.252 188.765-218.275-188.765h-0.884v465.455h442.182v-465.455h-4.771zM302.545 558.545h442.182v-93.091h-442.182v93.091z" />
<glyph unicode="&#xe63d;" d="M706.444 39.564c-113.408-113.408-297.286-113.408-410.694 0-113.408 113.431-113.408 297.286 0 410.694s297.286 113.408 410.694 0 113.431-297.286 0-410.694zM344.157 401.85c-86.691-86.668-86.691-227.212 0-313.879 0.791-0.209 313.926 314.391 313.879 313.879-86.668 86.691-227.212 86.691-313.879 0zM674.723 193.327h-162.467v-37.539h162.467v37.539zM449.257 232.564h-37.353v62.86h-62.557v37.539h62.557v62.86h37.353v-62.86h62.557v-37.539h-62.557v-62.86z" />
<glyph unicode="&#xe63e;" d="M800-256h-640v704h704v-704h-64zM800 384h-576v-576h576v576zM480 256v-128h-64v64h-128v64h192zM672 64h64v-128h-64v64h-320v-64h-64v128h384zM608 128h-64v128h192v-64h-128v-64zM544 512v64h64v-64h-64zM608 640h64v-64h-64v64zM544 704h64v-64h-64v64zM672 768v-64h-64v64h64zM352 512v64h64v-64h-64zM416 640h64v-64h-64v64zM352 704h64v-64h-64v64zM480 768v-64h-64v64h64z" />
<glyph unicode="&#xe63f;" d="M800-256h-640v704h704v-704h-64zM800 384h-576v-576h576v576zM480 256v-64h-128v-64h-64v128h192zM352 0h320v64h64v-128h-448v128h64v-64zM672 192h-128v64h192v-128h-64v64zM608 576h-64v-64h-64v64h-64v64h-64v64h64v64h64v-64h64v64h64v-64h64v-64h-64v-64z" />
<glyph unicode="&#xe640;" d="M800-256h-640v704h704v-704h-64zM800 384h-576v-576h576v576zM480 256v-128h-64v64h-128v64h192zM672 64h64v-64h-448v64h384zM608 128h-64v128h192v-64h-128v-64zM480 576h64v-64h-64v64zM480 704v64h64v-128h-64v64z" />
<glyph unicode="&#xe641;" d="M791.156 232.727v-22.784h-558.615v23.273h0.675l278.644 278.644 278.9-278.644h0.372v-0.372l0.14-0.116h-0.116zM791.156-0.419h-558.615v93.091h558.592v-93.091z" />
<glyph unicode="&#xe642;" d="M680.913 239.127l0.489-0.838-49.315-29.58-0.931 1.606-181.876-105.286-45.103 78.336 49.315 29.58 16.826-29.207 74.356 43.055 0.628-1.047 106.519 63.907 0.372-0.628 91.834 53.155-100.561 174.639-273.734-158.464 20.876-36.259-49.315-29.58-50.060 86.924 373.271 216.111 158.045-274.432-141.638-81.99zM298.17 225.745l143.151 85.9 148.364 85.876 44.66-77.568-49.315-29.58-16.384 28.439-85.993-49.78-0.977 1.629-104.262-62.557-82.479-47.732 100.561-174.639 273.734 158.464-19.712 34.211 49.315 29.58 48.896-84.876-373.271-216.064-158.022 274.409 80.384 46.545 1.35-2.257z" />
</font>
</defs>
</svg>
